# xmcd
#
# Track frame offsets:
#	150
#	73002
#	98218
#	110609
#	145131
#	185713
#	198806
#
# Disc length: 2966 seconds
#
# Revision: 0
# Processed by: cddbd v1.5.2PL0 Copyright (c) Steve Scherf et al.
# Submitted via: audiograbber 1.83.01
#
DISCID=640b9407
DTITLE=Grateful Dead - 93-09-08 Richfield Coliseum, Richfield OH
DYEAR=1900
DGENRE=
TTITLE0=Space
TTITLE1=I Need A Miracle
TTITLE2=Standing On The Moon
TTITLE3=Black Peter
TTITLE4=Sugar Magnolia
TTITLE5=Crowd and Tuning
TTITLE6=The Weight
EXTD=
EXTT0=
EXTT1=
EXTT2=
EXTT3=
EXTT4=
EXTT5=
EXTT6=
PLAYORDER=
